<svg width="104" height="48" viewBox="0 0 104 48" fill="none" xmlns="http://www.w3.org/2000/svg">
<g clip-path="url(#clip0_47_5594)">
<mask id="mask0_47_5594" style="mask-type:luminance" maskUnits="userSpaceOnUse" x="0" y="14" width="45" height="34">
<path d="M28.2168 45.7197C29.3642 47.771 31.601 47.9999 33.4464 46.8368C40.0735 42.6635 44.7168 33.3659 44.8746 25.4789C44.9966 19.3834 41.1242 15.7649 36.786 15.0304C32.0683 14.2268 26.7866 16.8327 25.8177 23.36C25.5067 25.4604 25.4576 30.1208 22.4975 30.2375C19.5389 30.1146 19.4898 25.4604 19.1787 23.36C18.2099 16.8327 12.9281 14.2268 8.21042 15.0304C3.87221 15.7633 -0.000172541 19.3819 0.118886 25.4773C0.276639 33.3659 4.91993 42.6635 11.547 46.8352C13.3925 47.9984 15.6293 47.7695 16.7767 45.7182C17.2202 44.9229 17.3592 43.985 17.1664 43.0892C16.9736 42.1934 16.4629 41.4046 15.7349 40.8781C11.4563 38.6347 8.65987 34.2033 7.74311 28.6918C7.53476 27.4349 7.44547 27.0538 7.23563 25.6817C7.14937 25.0217 7.31748 24.3531 7.70379 23.8198C8.0901 23.2865 8.66374 22.931 9.3013 22.8299C10.669 22.6332 12.0188 23.6074 12.2212 25.0287L12.6111 27.504C12.7317 28.1355 12.879 28.7517 13.0576 29.3479C13.8196 31.7095 15.0623 33.9022 16.8035 35.4418C18.2813 36.6311 20.1505 37.3532 22.4662 37.4285C25.4323 37.3333 27.6661 36.1747 29.2823 34.3309C29.8963 33.5961 30.4294 32.7932 30.8718 31.9369C31.5505 30.5362 32.0354 29.044 32.3124 27.504L32.7023 25.0333C32.9047 23.612 34.256 22.6378 35.6222 22.8345C36.2584 22.9378 36.8301 23.2943 37.2146 23.8278C37.5991 24.3612 37.7658 25.029 37.679 25.6878C37.4721 27.06 37.3813 27.441 37.1715 28.6979C36.2785 34.1019 33.567 38.4657 29.4327 40.749L29.3419 40.8228C28.585 41.3382 28.0473 42.1326 27.8387 43.0436C27.6301 43.9547 27.7664 44.9136 28.2197 45.7243" fill="white"/>
</mask>
<g mask="url(#mask0_47_5594)">
<path d="M44.9968 14.2222H0V47.9999H44.9968V14.2222Z" fill="url(#paint0_linear_47_5594)"/>
</g>
<mask id="mask1_47_5594" style="mask-type:luminance" maskUnits="userSpaceOnUse" x="48" y="15" width="42" height="28">
<path d="M69.7432 29.022V28.999C69.7429 28.645 69.7126 28.2918 69.6524 27.9434C69.502 26.9897 69.17 26.0763 68.6754 25.2561C68.1808 24.4358 67.5336 23.725 66.7712 23.1647C65.649 22.2121 64.2833 21.7357 62.6741 21.7357C60.9795 21.7357 59.5493 22.2633 58.3835 23.3184C57.4263 24.0746 56.6724 25.071 56.1934 26.213C55.7144 27.3549 55.5263 28.6043 55.6469 29.8425C55.7676 31.0806 56.193 32.2663 56.8826 33.2869C57.5723 34.3074 58.5034 35.1288 59.5873 35.673C60.6712 36.2173 61.8719 36.4662 63.0753 36.3961C64.2786 36.3261 65.4447 35.9394 66.4625 35.2729C67.4803 34.6063 68.316 33.6821 68.8902 32.588C69.4644 31.4939 69.7581 30.2663 69.7432 29.022ZM62.6741 42.6127C59.9853 42.6127 57.5724 42.0329 55.4353 40.8734C53.3617 39.7767 51.6254 38.1048 50.4214 36.0455C49.2209 33.9876 48.6197 31.6516 48.6177 29.0374C48.6157 26.4232 49.2169 24.0877 50.4214 22.0308C51.6263 19.9737 53.3625 18.304 55.4353 17.2091C57.5724 16.0485 59.9853 15.4687 62.6741 15.4697C65.3628 15.4708 67.7678 16.0505 69.889 17.2091C71.9503 18.3123 73.6754 19.9833 74.8731 22.0369C76.0756 24.0948 76.6769 26.4304 76.6769 29.0435C76.6769 31.6567 76.0756 33.9907 74.8731 36.0455C73.6752 38.0986 71.9501 39.769 69.889 40.8718C67.7688 42.0314 65.3638 42.6117 62.6741 42.6127ZM85.3146 19.1313C85.8008 19.1311 86.2822 19.2298 86.7314 19.4217C87.1807 19.6137 87.5889 19.8951 87.9327 20.25C88.2766 20.6049 88.5493 21.0262 88.7354 21.4899C88.9215 21.9537 89.0173 22.4507 89.0173 22.9527V38.398C89.0173 39.4119 88.6272 40.3843 87.9328 41.1012C87.2384 41.8181 86.2966 42.2209 85.3146 42.2209C84.3326 42.2209 83.3907 41.8181 82.6963 41.1012C82.002 40.3843 81.6118 39.4119 81.6118 38.398V22.9527C81.6118 22.4507 81.7076 21.9537 81.8937 21.4899C82.0798 21.0262 82.3526 20.6049 82.6964 20.25C83.0403 19.8951 83.4485 19.6137 83.8977 19.4217C84.3469 19.2298 84.8284 19.1311 85.3146 19.1313Z" fill="white"/>
</mask>
<g mask="url(#mask1_47_5594)">
<path d="M89.0177 15.4634H48.6255V42.6125H89.0177V15.4634Z" fill="url(#paint1_linear_47_5594)"/>
</g>
<mask id="mask2_47_5594" style="mask-type:luminance" maskUnits="userSpaceOnUse" x="80" y="6" width="10" height="10">
<path d="M85.3143 15.3239C84.0126 15.3239 82.9529 14.9218 82.1354 14.1177C81.7383 13.7365 81.4237 13.2729 81.2124 12.7573C81.001 12.2417 80.8977 11.6858 80.9091 11.1261C80.8974 10.5663 81.0006 10.0103 81.212 9.49465C81.4233 8.97901 81.738 8.51543 82.1354 8.13441C82.9529 7.33131 84.0126 6.92925 85.3143 6.92822C86.616 6.9272 87.6756 7.31338 88.4931 8.08678C88.889 8.44834 89.2037 8.89462 89.4155 9.39456C89.6273 9.8945 89.731 10.4361 89.7195 10.9816C89.7195 12.2354 89.3107 13.2726 88.4931 14.0931C87.6756 14.9136 86.616 15.3234 85.3143 15.3223" fill="white"/>
</mask>
<g mask="url(#mask2_47_5594)">
<path d="M89.7195 6.92822H80.9092V15.3239H89.7195V6.92822Z" fill="url(#paint2_linear_47_5594)"/>
</g>
<mask id="mask3_47_5594" style="mask-type:luminance" maskUnits="userSpaceOnUse" x="95" y="7" width="9" height="36">
<path d="M99.6017 7.03564C100.584 7.03564 101.525 7.43841 102.22 8.15535C102.914 8.87229 103.304 9.84466 103.304 10.8586V38.398C103.304 39.4119 102.914 40.3843 102.22 41.1012C101.525 41.8181 100.584 42.2209 99.6017 42.2209C98.6196 42.2209 97.6778 41.8181 96.9834 41.1012C96.289 40.3843 95.8989 39.4119 95.8989 38.398V10.8586C95.8989 9.84466 96.289 8.87229 96.9834 8.15535C97.6778 7.43841 98.6196 7.03564 99.6017 7.03564Z" fill="white"/>
</mask>
<g mask="url(#mask3_47_5594)">
<path d="M103.303 7.03564H95.8989V42.2194H103.303V7.03564Z" fill="url(#paint3_linear_47_5594)"/>
</g>
<mask id="mask4_47_5594" style="mask-type:luminance" maskUnits="userSpaceOnUse" x="7" y="0" width="11" height="11">
<path d="M12.3016 9.00029e-07C11.296 -0.000606975 10.3128 0.306714 9.47641 0.883093C8.63999 1.45947 7.98792 2.27901 7.60268 3.23806C7.21744 4.1971 7.11634 5.25256 7.31217 6.27093C7.50799 7.28931 7.99194 8.22485 8.70281 8.95921C9.41367 9.69358 10.3195 10.1938 11.3058 10.3966C12.292 10.5993 13.3143 10.4956 14.2435 10.0984C15.1726 9.70122 15.9667 9.02846 16.5255 8.16523C17.0842 7.302 17.3825 6.28707 17.3825 5.24882C17.3827 4.55974 17.2514 3.87736 16.9962 3.24066C16.7409 2.60395 16.3667 2.02538 15.8949 1.53798C15.4231 1.05058 14.863 0.663902 14.2464 0.400015C13.6299 0.136128 12.9691 0.000202652 12.3016 9.00029e-07Z" fill="white"/>
</mask>
<g mask="url(#mask4_47_5594)">
<path d="M17.3844 0H7.21826V10.4961H17.3844V0Z" fill="url(#paint4_linear_47_5594)"/>
</g>
<mask id="mask5_47_5594" style="mask-type:luminance" maskUnits="userSpaceOnUse" x="27" y="0" width="11" height="11">
<path d="M32.7025 2.25056e-07C31.697 2.25056e-07 30.7141 0.307838 29.8781 0.884586C29.042 1.46133 28.3904 2.28109 28.0056 3.24019C27.6209 4.19928 27.5202 5.25465 27.7163 6.27282C27.9125 7.29099 28.3967 8.22624 29.1077 8.9603C29.8187 9.69436 30.7245 10.1943 31.7107 10.3968C32.6968 10.5993 33.719 10.4954 34.648 10.0981C35.5769 9.70083 36.3709 9.02808 36.9295 8.16491C37.4881 7.30175 37.7863 6.28694 37.7863 5.24882C37.7865 4.55948 37.6551 3.87685 37.3997 3.23995C37.1443 2.60304 36.7698 2.02433 36.2977 1.53689C35.8256 1.04946 35.2651 0.662838 34.6482 0.399132C34.0313 0.135425 33.3701 -0.000201662 32.7025 2.25056e-07Z" fill="white"/>
</mask>
<g mask="url(#mask5_47_5594)">
<path d="M37.7863 0H27.6201V10.4961H37.7863V0Z" fill="url(#paint5_linear_47_5594)"/>
</g>
</g>
<defs>
<linearGradient id="paint0_linear_47_5594" x1="21.947" y1="37.0045" x2="25.2305" y2="4.09955" gradientUnits="userSpaceOnUse">
<stop stop-color="#5843BD"/>
<stop offset="1" stop-color="#FF6633"/>
</linearGradient>
<linearGradient id="paint1_linear_47_5594" x1="67.6481" y1="41.5646" x2="70.9316" y2="8.66123" gradientUnits="userSpaceOnUse">
<stop stop-color="#5843BD"/>
<stop offset="1" stop-color="#FF6633"/>
</linearGradient>
<linearGradient id="paint2_linear_47_5594" x1="82.3275" y1="43.0308" x2="85.6109" y2="10.1259" gradientUnits="userSpaceOnUse">
<stop stop-color="#5843BD"/>
<stop offset="1" stop-color="#FF6633"/>
</linearGradient>
<linearGradient id="paint3_linear_47_5594" x1="97.7354" y1="44.5672" x2="101.019" y2="11.6638" gradientUnits="userSpaceOnUse">
<stop stop-color="#5843BD"/>
<stop offset="1" stop-color="#FF6633"/>
</linearGradient>
<linearGradient id="paint4_linear_47_5594" x1="10.0697" y1="9.85691" x2="14.5572" y2="1.1657" gradientUnits="userSpaceOnUse">
<stop stop-color="#5843BD"/>
<stop offset="1" stop-color="#FF6633"/>
</linearGradient>
<linearGradient id="paint5_linear_47_5594" x1="30.2781" y1="9.77855" x2="35.3681" y2="0.856779" gradientUnits="userSpaceOnUse">
<stop stop-color="#5843BD"/>
<stop offset="1" stop-color="#FF6633"/>
</linearGradient>
<clipPath id="clip0_47_5594">
<rect width="103.304" height="48" fill="white"/>
</clipPath>
</defs>
</svg>
