<svg width="19" height="21" viewBox="0 0 19 21" fill="none" xmlns="http://www.w3.org/2000/svg">
<path d="M9.0149 18.1086C7.2674 18.1086 5.5199 17.8003 3.8624 17.1836C3.2324 16.9419 2.7524 16.4503 2.5424 15.8086C2.3249 15.1669 2.3999 14.4586 2.7449 13.8253L3.6074 12.2336C3.7874 11.9003 3.9524 11.2336 3.9524 10.8419V8.43359C3.9524 5.33359 6.2249 2.80859 9.0149 2.80859C11.8049 2.80859 14.0774 5.33359 14.0774 8.43359V10.8419C14.0774 11.2253 14.2424 11.9003 14.4224 12.2419L15.2774 13.8253C15.5999 14.4253 15.6599 15.1503 15.4424 15.8086C15.2249 16.4669 14.7524 16.9669 14.1599 17.1836C12.5099 17.8003 10.7624 18.1086 9.0149 18.1086ZM9.0149 4.05859C6.8474 4.05859 5.0774 6.01692 5.0774 8.43359V10.8419C5.0774 11.4503 4.8524 12.3503 4.5749 12.8753L3.7124 14.4669C3.5474 14.7753 3.5024 15.1003 3.5999 15.3753C3.6899 15.6586 3.9149 15.8753 4.2224 15.9919C7.3574 17.1586 10.6799 17.1586 13.8149 15.9919C14.0849 15.8919 14.2949 15.6669 14.3924 15.3669C14.4899 15.0669 14.4674 14.7419 14.3174 14.4669L13.4549 12.8753C13.1699 12.3336 12.9524 11.4419 12.9524 10.8336V8.43359C12.9524 6.01692 11.1899 4.05859 9.0149 4.05859Z" fill="#898989"/>
<path d="M10.41 4.2834C10.3575 4.2834 10.305 4.27507 10.2525 4.2584C10.035 4.19173 9.82496 4.14173 9.62246 4.1084C8.98496 4.01673 8.36996 4.06673 7.79246 4.2584C7.58246 4.3334 7.35746 4.2584 7.21496 4.0834C7.07246 3.9084 7.02746 3.6584 7.10996 3.4334C7.41746 2.5584 8.16746 1.9834 9.02246 1.9834C9.87746 1.9834 10.6275 2.55007 10.935 3.4334C11.01 3.6584 10.9725 3.9084 10.83 4.0834C10.7175 4.21673 10.56 4.2834 10.41 4.2834Z" fill="#898989"/>
<path d="M9.01514 20.0078C8.27264 20.0078 7.55264 19.6745 7.02764 19.0911C6.50264 18.5078 6.20264 17.7078 6.20264 16.8828H7.32764C7.32764 17.3745 7.50764 17.8578 7.82264 18.2078C8.13764 18.5578 8.57264 18.7578 9.01514 18.7578C9.94514 18.7578 10.7026 17.9161 10.7026 16.8828H11.8276C11.8276 18.6078 10.5676 20.0078 9.01514 20.0078Z" fill="#898989"/>
<path d="M13.4999 9.48515C15.8029 9.48515 17.5852 7.42768 17.5852 4.9999C17.5852 2.57212 15.8029 0.514648 13.4999 0.514648C11.1969 0.514648 9.41464 2.57212 9.41464 4.9999C9.41464 7.42768 11.1969 9.48515 13.4999 9.48515Z" fill="#00B85E" stroke="#1E1E1E" stroke-width="0.970498"/>
</svg>
