<svg width="19" height="20" viewBox="0 0 19 20" fill="none" xmlns="http://www.w3.org/2000/svg">
<g clip-path="url(#clip0_679_3339)">
<path fill-rule="evenodd" clip-rule="evenodd" d="M8.23666 20.0005C1.26473 20.0351 -2.57719 10.9154 1.98857 5.68075C2.22473 5.39857 2.52459 5.18844 2.85843 5.0712C3.19228 4.95397 3.54849 4.93369 3.89176 5.01239C4.23502 5.0911 4.55341 5.26604 4.81535 5.51987C5.07729 5.7737 5.27368 6.0976 5.38505 6.45946C5.40531 6.51922 5.41737 6.5819 5.42084 6.64549C5.46162 6.72079 5.52473 6.77877 5.59981 6.80988C5.64776 6.83423 5.70002 6.84685 5.75293 6.84685C5.80584 6.84685 5.85811 6.83423 5.90605 6.80988C7.05545 6.16095 7.2026 4.64679 7.34976 2.25873V2.02944C7.3726 1.64768 7.48811 1.27934 7.68451 0.961982C7.88092 0.644625 8.15118 0.389605 8.46775 0.222928C8.78431 0.0562507 9.13585 -0.0161195 9.48652 0.0131974C9.83718 0.0425142 10.1744 0.172469 10.4639 0.38981C13.2717 2.51397 14.6041 5.69373 15.1489 7.40257C15.1797 7.49944 15.1927 7.60196 15.1871 7.70428C15.1815 7.80659 15.1574 7.90671 15.1162 7.99891C15.0751 8.0911 15.0176 8.17357 14.9471 8.24161C14.8766 8.30964 14.7945 8.36192 14.7055 8.39543C14.6164 8.42895 14.5222 8.44307 14.4281 8.43696C14.3341 8.43086 14.242 8.40467 14.1573 8.35988C14.0725 8.31508 13.9967 8.25257 13.9341 8.17591C13.8716 8.09924 13.8235 8.00993 13.7927 7.91306C13.3035 6.38592 12.1184 3.54361 9.64457 1.67469C9.56391 1.61203 9.46907 1.57448 9.37026 1.5661C9.27145 1.55771 9.1724 1.5788 9.08379 1.6271C8.99653 1.67152 8.92197 1.74084 8.86805 1.82768C8.81412 1.91453 8.78285 2.01565 8.77755 2.12029V2.34525C8.66221 4.55594 8.46336 7.14733 6.56626 8.17696C6.33732 8.30853 6.08496 8.38475 5.82643 8.4004C5.56791 8.41606 5.30933 8.37078 5.06838 8.26767C4.82743 8.16455 4.6098 8.00604 4.43038 7.80297C4.25097 7.5999 4.114 7.35707 4.02884 7.09109C4.00959 7.02486 3.99627 6.95677 3.98907 6.88775C3.9523 6.7998 3.89723 6.72235 3.8282 6.66153C3.75918 6.60071 3.67809 6.55819 3.59136 6.53733C3.49343 6.51426 3.39161 6.52015 3.29649 6.55439C3.20137 6.58862 3.11641 6.64996 3.05046 6.73201C-1.567 12.3561 4.56178 20.9652 11.0962 17.7638C11.2666 17.694 11.455 17.6969 11.6234 17.7721C11.7919 17.8473 11.9279 17.9892 12.004 18.1691C12.0802 18.349 12.0908 18.5536 12.0338 18.7417C11.9768 18.9298 11.8564 19.0874 11.6968 19.1828C10.618 19.7232 9.4442 20.0022 8.25655 20.0005H8.23666ZM15.7932 16.9289C17.4517 15.5791 18.3466 13.9611 18.3784 12.2479C18.3821 11.7486 18.2506 11.2592 18.0003 10.8406C17.7501 10.422 17.3921 10.0928 16.971 9.89396C16.5499 9.69515 16.0843 9.63554 15.6323 9.72256C15.1803 9.80958 14.7618 10.0394 14.4291 10.3833C14.097 10.0402 13.6797 9.81063 13.2288 9.72319C12.7779 9.63575 12.3133 9.69426 11.8927 9.89145C11.4721 10.0887 11.114 10.4159 10.8628 10.8325C10.6116 11.2491 10.4784 11.7367 10.4798 12.2349C10.5116 13.9654 11.4025 15.5661 13.0609 16.9159C13.4567 17.2331 13.9354 17.4043 14.4271 17.4043C14.9187 17.4043 15.3975 17.2331 15.7932 16.9159V16.9289ZM12.8104 11.2486C12.5755 11.2542 12.3519 11.3597 12.1876 11.5425C12.0233 11.7252 11.9314 11.9707 11.9314 12.2263C11.9632 13.7534 13.041 14.9475 13.92 15.6872C14.0661 15.8052 14.2432 15.8689 14.4251 15.8689C14.607 15.8689 14.7841 15.8052 14.9302 15.6872C15.829 14.9561 16.9188 13.7621 16.9386 12.2263C16.9386 11.967 16.844 11.7183 16.6754 11.5349C16.5068 11.3516 16.2782 11.2486 16.0398 11.2486C15.8014 11.2486 15.5728 11.3516 15.4042 11.5349C15.2357 11.7183 15.141 11.967 15.141 12.2263C15.1275 12.4233 15.046 12.6076 14.9129 12.742C14.7797 12.8764 14.6048 12.9512 14.4231 12.9512C14.2414 12.9512 14.0665 12.8764 13.9334 12.742C13.8002 12.6076 13.7187 12.4233 13.7052 12.2263C13.7052 11.9677 13.6111 11.7197 13.4434 11.5365C13.2757 11.3532 13.0481 11.2497 12.8104 11.2486ZM16.5807 2.9639C16.5655 2.71639 16.4645 2.4844 16.2979 2.31493C16.1314 2.14546 15.9119 2.05118 15.6839 2.05118C15.4558 2.05118 15.2363 2.14546 15.0698 2.31493C14.9033 2.4844 14.8022 2.71639 14.787 2.9639C14.787 3.89835 15.3796 4.65544 16.0637 5.20486C16.2146 5.32549 16.3974 5.38946 16.5847 5.38712C16.7719 5.38478 16.9534 5.31626 17.1017 5.19189C17.7858 4.64246 18.3585 3.89403 18.3784 2.95092C18.3768 2.69161 18.2806 2.44361 18.1109 2.26147C18.0269 2.17128 17.9273 2.09998 17.818 2.05163C17.7086 2.00328 17.5916 1.97883 17.4736 1.97969C17.3555 1.98054 17.2388 2.00667 17.1301 2.05659C17.0213 2.10652 16.9227 2.17925 16.8397 2.27064C16.6723 2.45522 16.5791 2.70459 16.5807 2.9639Z" fill="white"/>
</g>
<defs>
<clipPath id="clip0_679_3339">
<rect width="18.3784" height="20" fill="white"/>
</clipPath>
</defs>
</svg>
