<svg width="21" height="20" viewBox="0 0 21 20" fill="none" xmlns="http://www.w3.org/2000/svg">
<path fill-rule="evenodd" clip-rule="evenodd" d="M8.57417 14.4404C9.01107 14.8807 9.25624 15.4757 9.25624 16.096C9.25624 16.7162 9.01107 17.3113 8.57417 17.7515L7.27571 19.05C7.20296 19.1221 7.1167 19.1793 7.02186 19.2181C6.92702 19.257 6.82545 19.2768 6.72297 19.2764C6.62048 19.276 6.51907 19.2554 6.42454 19.2158C6.33001 19.1762 6.2442 19.1184 6.17202 19.0456C6.09983 18.9729 6.04268 18.8866 6.00383 18.7918C5.96499 18.6969 5.9452 18.5954 5.9456 18.4929C5.946 18.3904 5.96659 18.289 6.00618 18.1945C6.04577 18.0999 6.10359 18.0141 6.17635 17.9419L7.47481 16.6435C7.54652 16.5719 7.60342 16.4869 7.64224 16.3933C7.68106 16.2998 7.70104 16.1994 7.70104 16.0981C7.70104 15.9968 7.68106 15.8965 7.64224 15.8029C7.60342 15.7093 7.54652 15.6243 7.47481 15.5528L6.17635 14.2889C6.04168 14.1414 5.96845 13.948 5.97162 13.7483C5.9748 13.5486 6.05415 13.3576 6.19344 13.2145C6.33274 13.0713 6.52146 12.9867 6.72101 12.9781C6.92057 12.9694 7.1159 13.0374 7.26705 13.1679L8.56551 14.4361L8.57417 14.4404ZM6.17635 16.0245C6.17635 15.8168 6.09381 15.6175 5.94689 15.4706C5.79997 15.3237 5.60071 15.2411 5.39294 15.2411H4.69177C3.86482 15.2412 3.07149 14.9138 2.48513 14.3307C1.89877 13.7476 1.56706 12.9561 1.56248 12.1292V10.2897C1.5478 10.0925 1.45911 9.90821 1.31422 9.77371C1.16933 9.63921 0.978939 9.56446 0.781241 9.56446C0.583542 9.56446 0.393153 9.63921 0.24826 9.77371C0.103367 9.90821 0.0146847 10.0925 0 10.2897V12.1292C0.00343129 13.372 0.498981 14.563 1.37824 15.4414C2.2575 16.3199 3.44889 16.8143 4.69177 16.8166H5.39294C5.49655 16.8166 5.59913 16.7961 5.69475 16.7562C5.79037 16.7162 5.87711 16.6578 5.94997 16.5841C6.02283 16.5104 6.08036 16.423 6.11922 16.327C6.15807 16.231 6.17749 16.1282 6.17635 16.0245ZM13.8502 5.81864L12.5518 4.55481C12.4096 4.41064 12.3299 4.21628 12.3299 4.01378C12.3299 3.81128 12.4096 3.61693 12.5518 3.47276L13.8502 2.1743C13.9304 2.1036 13.9953 2.01725 14.0408 1.92056C14.0864 1.82387 14.1116 1.71887 14.1151 1.61205C14.1186 1.50522 14.1001 1.39881 14.0609 1.29938C14.0217 1.19994 13.9626 1.10958 13.8871 1.03386C13.8117 0.958131 13.7216 0.898641 13.6223 0.859049C13.523 0.819456 13.4167 0.800598 13.3098 0.803635C13.203 0.806672 13.0979 0.831539 13.001 0.876708C12.9042 0.921876 12.8176 0.986389 12.7466 1.06628L11.4481 2.36474C11.0091 2.80385 10.7625 3.39935 10.7625 4.02028C10.7625 4.6412 11.0091 5.2367 11.4481 5.67581L12.7466 6.94398C12.8204 7.01645 12.9079 7.07365 13.0039 7.11233C13.0999 7.151 13.2026 7.17039 13.3061 7.16939C13.4095 7.16839 13.5118 7.14701 13.6071 7.10647C13.7023 7.06594 13.7886 7.00705 13.8611 6.93316C13.9335 6.85927 13.9907 6.77183 14.0294 6.67583C14.0681 6.57983 14.0875 6.47715 14.0865 6.37366C14.0855 6.27017 14.0641 6.16789 14.0236 6.07266C13.983 5.97743 13.9241 5.89111 13.8502 5.81864ZM15.3348 3.29097C16.5755 3.29783 17.7631 3.79489 18.6387 4.67378C19.5144 5.55267 20.007 6.7421 20.0093 7.98275V9.8179C19.9946 10.0151 19.9059 10.1994 19.761 10.3339C19.6161 10.4684 19.4257 10.5431 19.228 10.5431C19.0303 10.5431 18.84 10.4684 18.6951 10.3339C18.5502 10.1994 18.4615 10.0151 18.4468 9.8179V7.98275C18.4457 7.15356 18.1155 6.35872 17.5287 5.7728C16.942 5.18688 16.1467 4.85778 15.3175 4.85778H14.6163C14.4086 4.85778 14.2093 4.77525 14.0624 4.62833C13.9155 4.48141 13.8329 4.28215 13.8329 4.07438C13.8329 3.86661 13.9155 3.66735 14.0624 3.52043C14.2093 3.37351 14.4086 3.29097 14.6163 3.29097H15.3348ZM7.60898 1.40388C7.50076 1.00106 7.26271 0.645174 6.93171 0.391367C6.60072 0.13756 6.19526 0 5.77815 0C5.36105 0 4.95559 0.13756 4.62459 0.391367C4.29359 0.645174 4.05554 1.00106 3.94732 1.40388L2.67916 6.93532C2.64756 7.13155 2.69173 7.33245 2.80272 7.49733C2.91371 7.66222 3.08322 7.77875 3.27692 7.82332C3.47061 7.86789 3.67401 7.83717 3.8459 7.73739C4.0178 7.6376 4.14534 7.47621 4.20268 7.2859L4.4191 6.32937H7.17616L7.40556 7.29023C7.42385 7.39525 7.46339 7.49542 7.52174 7.58463C7.58009 7.67383 7.65604 7.75019 7.74493 7.80902C7.83381 7.86786 7.93377 7.90794 8.03868 7.9268C8.1436 7.94567 8.25126 7.94292 8.35507 7.91874C8.45889 7.89456 8.55668 7.84944 8.64245 7.78615C8.72823 7.72287 8.80018 7.64274 8.85392 7.55068C8.90765 7.45862 8.94203 7.35656 8.95496 7.25075C8.96788 7.14494 8.95908 7.03761 8.92908 6.93532L7.60898 1.40388ZM4.76102 4.77122L5.43189 1.84535C5.44714 1.76876 5.48847 1.69981 5.54884 1.65027C5.60922 1.60072 5.6849 1.57364 5.763 1.57364C5.8411 1.57364 5.91679 1.60072 5.97716 1.65027C6.03754 1.69981 6.07887 1.76876 6.09411 1.84535L6.80826 4.77122H4.76102ZM16.3996 17.4485C16.2648 17.6404 16.1203 17.8253 15.9667 18.0025C16.5351 18.2998 17.1693 18.4486 17.8106 18.4354C17.918 18.4273 18.026 18.4416 18.1277 18.4772C18.2295 18.5129 18.3227 18.5691 18.4017 18.6424C18.4807 18.7158 18.5437 18.8046 18.5868 18.9034C18.6299 19.0022 18.6521 19.1088 18.6521 19.2166C18.6521 19.3244 18.6299 19.431 18.5868 19.5298C18.5437 19.6286 18.4807 19.7174 18.4017 19.7908C18.3227 19.8641 18.2295 19.9203 18.1277 19.9559C18.026 19.9916 17.918 20.0058 17.8106 19.9978C16.7307 20.0039 15.6743 19.6825 14.7808 19.0759C13.8883 19.6845 12.8313 20.0061 11.7511 19.9978C11.6436 20.0058 11.5356 19.9916 11.4339 19.9559C11.3322 19.9203 11.2389 19.8641 11.1599 19.7908C11.0809 19.7174 11.0179 19.6286 10.9748 19.5298C10.9317 19.431 10.9095 19.3244 10.9095 19.2166C10.9095 19.1088 10.9317 19.0022 10.9748 18.9034C11.0179 18.8046 11.0809 18.7158 11.1599 18.6424C11.2389 18.5691 11.3322 18.5129 11.4339 18.4772C11.5356 18.4416 11.6436 18.4273 11.7511 18.4354C12.3908 18.4475 13.0234 18.2987 13.5906 18.0025C13.34 17.7055 13.1142 17.3885 12.9154 17.0547C12.8534 16.9665 12.8104 16.8664 12.7889 16.7608C12.7673 16.6552 12.7678 16.5463 12.7903 16.4409C12.8128 16.3356 12.8568 16.2359 12.9196 16.1483C12.9823 16.0607 13.0625 15.987 13.155 15.9318C13.2476 15.8765 13.3505 15.841 13.4574 15.8274C13.5643 15.8137 13.6729 15.8223 13.7763 15.8525C13.8798 15.8828 13.9758 15.934 14.0586 16.0031C14.1413 16.0722 14.2089 16.1576 14.2571 16.2539C14.4152 16.5192 14.5947 16.7711 14.7938 17.007C14.9156 16.8691 15.0297 16.7246 15.1357 16.5742C15.5662 15.9364 15.8798 15.227 16.062 14.4794H11.4914C11.2942 14.4647 11.1099 14.376 10.9754 14.2311C10.8409 14.0862 10.7662 13.8958 10.7662 13.6981C10.7662 13.5004 10.8409 13.3101 10.9754 13.1652C11.1099 13.0203 11.2942 12.9316 11.4914 12.9169H14.0277V12.1292C14.0522 11.9404 14.1445 11.767 14.2875 11.6414C14.4304 11.5157 14.6143 11.4464 14.8046 11.4464C14.995 11.4464 15.1788 11.5157 15.3218 11.6414C15.4647 11.767 15.5571 11.9404 15.5815 12.1292V12.9082H18.0399C18.2371 12.9229 18.4214 13.0116 18.5559 13.1565C18.6904 13.3014 18.7652 13.4918 18.7652 13.6895C18.7652 13.8872 18.6904 14.0776 18.5559 14.2225C18.4214 14.3674 18.2371 14.456 18.0399 14.4707H17.6071C17.4126 15.5384 16.9953 16.553 16.3822 17.4485H16.3996Z" fill="#5843BD"/>
</svg>
